<svg viewBox="0 0 820 940" xmlns="http://www.w3.org/2000/svg" font-family="Segoe UI, Arial, sans-serif">
  <defs>
    <marker id="arrow" viewBox="0 0 10 10" refX="8" refY="5" markerWidth="8" markerHeight="8" orient="auto-start-reverse">
      <path d="M0,0 L10,5 L0,10 z" fill="#333333"/>
    </marker>
  </defs>

  <rect width="820" height="940" fill="#ffffff"/>

  <text x="410" y="30" text-anchor="middle" font-size="22" font-weight="700" fill="#0E0E10">AutoPipelineAI — System Architecture</text>

  <!-- Developer actor -->
  <circle cx="410" cy="60" r="12" fill="none" stroke="#333333" stroke-width="2"/>
  <line x1="410" y1="72" x2="410" y2="100" stroke="#333333" stroke-width="2"/>
  <line x1="392" y1="82" x2="428" y2="82" stroke="#333333" stroke-width="2"/>
  <line x1="410" y1="100" x2="396" y2="120" stroke="#333333" stroke-width="2"/>
  <line x1="410" y1="100" x2="424" y2="120" stroke="#333333" stroke-width="2"/>
  <text x="410" y="136" text-anchor="middle" font-size="13" fill="#333333">Developer</text>

  <line x1="410" y1="144" x2="410" y2="172" stroke="#333333" stroke-width="2" marker-end="url(#arrow)"/>
  <text x="430" y="162" font-size="12" fill="#555555">natural-language prompt, HITL decisions</text>

  <!-- Frontend tier -->
  <rect x="90" y="176" width="640" height="120" rx="16" fill="#DCEEFA" stroke="#4A90D9" stroke-width="1.5"/>
  <text x="112" y="200" font-size="14" font-weight="700" fill="#2A5F8A">PRESENTATION TIER</text>
  <rect x="140" y="212" width="540" height="66" rx="10" fill="#ffffff" stroke="#4A90D9" stroke-width="1.5"/>
  <text x="410" y="238" text-anchor="middle" font-size="17" font-weight="700" fill="#0E0E10">Frontend</text>
  <text x="410" y="260" text-anchor="middle" font-size="13" fill="#666666">Next.js 16 UI + Electron 41 shell · :3001</text>

  <!-- arrow FE -> BE -->
  <line x1="410" y1="296" x2="410" y2="336" stroke="#333333" stroke-width="2" marker-end="url(#arrow)" marker-start="url(#arrow)"/>
  <rect x="470" y="303" width="200" height="26" fill="#ffffff"/>
  <text x="475" y="320" font-size="12" fill="#555555">REST + NDJSON stream</text>

  <!-- Backend tier -->
  <rect x="90" y="340" width="640" height="120" rx="16" fill="#EDE6F8" stroke="#7B5EA7" stroke-width="1.5"/>
  <text x="112" y="364" font-size="14" font-weight="700" fill="#5B3D8A">APPLICATION TIER (BFF)</text>
  <rect x="140" y="376" width="540" height="66" rx="10" fill="#ffffff" stroke="#7B5EA7" stroke-width="1.5"/>
  <text x="410" y="402" text-anchor="middle" font-size="17" font-weight="700" fill="#0E0E10">Backend</text>
  <text x="410" y="424" text-anchor="middle" font-size="13" fill="#666666">NestJS + Prisma + SQLite · :3333</text>

  <!-- arrow BE -> Agent -->
  <line x1="410" y1="460" x2="410" y2="500" stroke="#333333" stroke-width="2" marker-end="url(#arrow)" marker-start="url(#arrow)"/>
  <rect x="455" y="467" width="230" height="26" fill="#ffffff"/>
  <text x="460" y="484" font-size="12" fill="#555555">NDJSON request / event stream</text>

  <!-- Agent tier -->
  <rect x="90" y="504" width="640" height="120" rx="16" fill="#FFF6D8" stroke="#C9A227" stroke-width="1.5"/>
  <text x="112" y="528" font-size="14" font-weight="700" fill="#8A6D1B">INTELLIGENCE TIER</text>
  <rect x="140" y="540" width="540" height="66" rx="10" fill="#ffffff" stroke="#C9A227" stroke-width="1.5"/>
  <text x="410" y="566" text-anchor="middle" font-size="17" font-weight="700" fill="#0E0E10">Agent</text>
  <text x="410" y="588" text-anchor="middle" font-size="13" fill="#666666">FastAPI + LangGraph multi-agent engine · :8000</text>

  <!-- arrow Agent -> External -->
  <line x1="410" y1="624" x2="410" y2="664" stroke="#333333" stroke-width="2" marker-end="url(#arrow)"/>
  <rect x="440" y="631" width="230" height="26" fill="#ffffff"/>
  <text x="445" y="648" font-size="12" fill="#555555">per-request LLM calls, search, lint</text>

  <!-- External Services -->
  <rect x="50" y="668" width="720" height="160" rx="16" fill="#E3F5E6" stroke="#3F9142" stroke-width="1.5"/>
  <text x="72" y="692" font-size="14" font-weight="700" fill="#276B2A">EXTERNAL SERVICES</text>

  <rect x="76" y="706" width="210" height="98" rx="10" fill="#ffffff" stroke="#3F9142" stroke-width="1.5"/>
  <text x="181" y="740" text-anchor="middle" font-size="15" font-weight="700" fill="#0E0E10">LLM Providers</text>
  <text x="181" y="762" text-anchor="middle" font-size="12" fill="#666666">OpenAI · Anthropic ·</text>
  <text x="181" y="778" text-anchor="middle" font-size="12" fill="#666666">Gemini · Groq</text>

  <rect x="306" y="706" width="200" height="98" rx="10" fill="#ffffff" stroke="#3F9142" stroke-width="1.5"/>
  <text x="406" y="740" text-anchor="middle" font-size="15" font-weight="700" fill="#0E0E10">Web Search</text>
  <text x="406" y="762" text-anchor="middle" font-size="12" fill="#666666">DuckDuckGo research</text>
  <text x="406" y="778" text-anchor="middle" font-size="12" fill="#666666">for live syntax/docs</text>

  <rect x="526" y="706" width="218" height="98" rx="10" fill="#ffffff" stroke="#3F9142" stroke-width="1.5"/>
  <text x="635" y="740" text-anchor="middle" font-size="15" font-weight="700" fill="#0E0E10">Validators</text>
  <text x="635" y="762" text-anchor="middle" font-size="12" fill="#666666">actionlint ·</text>
  <text x="635" y="778" text-anchor="middle" font-size="12" fill="#666666">GitLab CI Lint API</text>

  <text x="410" y="860" text-anchor="middle" font-size="12" fill="#888888">Three independently-tested services, composed into one desktop app by the AutoPipeline launcher.</text>
</svg>
